<svg width="88" height="60" viewBox="0 0 88 60" fill="none" xmlns="http://www.w3.org/2000/svg">
<path d="M3.04131 6.25461V18.7521H1.17527C1.09124 18.7523 1.00801 18.7358 0.930348 18.7036C0.852689 18.6714 0.782129 18.6242 0.722709 18.5646C0.66329 18.5051 0.616181 18.4344 0.584081 18.3565C0.551981 18.2787 0.535521 18.1953 0.535645 18.111V1.9835C0.535645 1.43791 0.941306 0.993492 1.49885 0.993492H9.74319C10.2989 0.993492 10.7073 1.43602 10.7073 1.98161V2.92906H23.4545C23.8092 2.92906 24.0941 3.21557 24.0941 3.56826V7.19545H13.213V6.2461C13.213 5.70146 12.8073 5.25799 12.2479 5.25799H4.00734C3.44791 5.25893 3.04225 5.70808 3.04225 6.25556L3.04131 6.25461Z" fill="white"/>
<path d="M29.1059 26.3214C29.106 26.4055 29.0895 26.4888 29.0574 26.5666C29.0253 26.6443 28.9782 26.7149 28.9187 26.7743C28.8593 26.8337 28.7887 26.8808 28.711 26.9127C28.6334 26.9447 28.5502 26.961 28.4663 26.9606H6.18796C6.10402 26.961 6.02083 26.9447 5.94319 26.9127C5.86554 26.8808 5.79496 26.8337 5.73552 26.7743C5.67607 26.7149 5.62893 26.6443 5.59681 26.5666C5.56469 26.4888 5.54822 26.4055 5.54834 26.3214V10.1929C5.54834 9.6473 5.954 9.20288 6.51155 9.20288H14.754C15.3115 9.20288 15.72 9.64541 15.72 10.191V11.1385H28.4663C28.821 11.1385 29.1059 11.425 29.1059 11.7777V26.3214ZM19.2257 17.1399V13.335H15.4295V17.1399H11.6323V20.9449H15.4295V24.7489H19.2257V20.9449H23.02V17.1399H19.2257ZM33.6597 10.9995V59.7007H60.3644V10.9995H33.6597ZM58.6889 52.8114H35.3285V34.4164H58.6889V52.8114ZM58.6889 31.1154H35.3285V12.7232H58.6889V31.1154Z" fill="white"/>
<path d="M56.9935 14.2919H37.0039V29.5562H56.9935V14.2919ZM50.2539 19.4084H43.6718C43.4259 19.4084 43.19 19.3104 43.0161 19.1361C42.8422 18.9618 42.7445 18.7254 42.7445 18.4789C42.7445 18.2324 42.8422 17.9959 43.0161 17.8216C43.19 17.6473 43.4259 17.5494 43.6718 17.5494H50.2539C50.4999 17.5494 50.7357 17.6473 50.9096 17.8216C51.0836 17.9959 51.1813 18.2324 51.1813 18.4789C51.1813 18.7254 51.0836 18.9618 50.9096 19.1361C50.7357 19.3104 50.4999 19.4084 50.2539 19.4084ZM57.0058 35.9813H37.019V51.2427H57.0058V35.9813ZM50.2539 41.1024H43.6718C43.4256 41.1024 43.1895 41.0044 43.0154 40.8299C42.8413 40.6554 42.7435 40.4188 42.7435 40.172C42.7435 39.9252 42.8413 39.6886 43.0154 39.5141C43.1895 39.3396 43.4256 39.2416 43.6718 39.2416H50.2539C50.5001 39.2416 50.7362 39.3396 50.9103 39.5141C51.0844 39.6886 51.1822 39.9252 51.1822 40.172C51.1822 40.4188 51.0844 40.6554 50.9103 40.8299C50.7362 41.0044 50.5001 41.1024 50.2539 41.1024Z" fill="white"/>
</svg>
