<svg width="60" height="70" viewBox="0 0 60 70" fill="none" xmlns="http://www.w3.org/2000/svg">
<path d="M30 35.2356C34.5466 35.2356 38.9069 33.4272 42.1218 30.2081C45.3367 26.989 47.1429 22.6231 47.1429 18.0707C47.1429 13.5182 45.3367 9.15225 42.1218 5.9332C38.9069 2.71415 34.5466 0.905701 30 0.905701C25.4534 0.905701 21.0931 2.71415 17.8782 5.9332C14.6633 9.15225 12.8571 13.5182 12.8571 18.0707C12.8571 22.6231 14.6633 26.989 17.8782 30.2081C21.0931 33.4272 25.4534 35.2356 30 35.2356ZM17.1429 42.638C7.23214 45.548 0 54.7205 0 65.5827C0 67.782 1.78125 69.5655 3.97768 69.5655H56.0223C58.2187 69.5655 60 67.782 60 65.5827C60 54.7205 52.7679 45.548 42.8571 42.638V49.4503C46.5536 50.4024 49.2857 53.7684 49.2857 57.7646V63.1286C49.2857 64.3087 48.3214 65.2743 47.1429 65.2743H45C43.8214 65.2743 42.8571 64.3087 42.8571 63.1286C42.8571 61.9486 43.8214 60.983 45 60.983V57.7646C45 55.391 43.0848 53.4734 40.7143 53.4734C38.3438 53.4734 36.4286 55.391 36.4286 57.7646V60.983C37.6071 60.983 38.5714 61.9486 38.5714 63.1286C38.5714 64.3087 37.6071 65.2743 36.4286 65.2743H34.2857C33.1071 65.2743 32.1429 64.3087 32.1429 63.1286V57.7646C32.1429 53.7684 34.875 50.4024 38.5714 49.4503V41.7931C37.7679 41.7127 36.9509 41.6725 36.1205 41.6725H23.8795C23.0491 41.6725 22.2321 41.7127 21.4286 41.7931V50.5634C24.5223 51.4887 26.7857 54.3584 26.7857 57.7646C26.7857 61.9083 23.4241 65.2743 19.2857 65.2743C15.1473 65.2743 11.7857 61.9083 11.7857 57.7646C11.7857 54.3584 14.0491 51.4887 17.1429 50.5634V42.638ZM19.2857 60.983C20.1382 60.983 20.9558 60.6439 21.5586 60.0404C22.1614 59.4368 22.5 58.6182 22.5 57.7646C22.5 56.911 22.1614 56.0924 21.5586 55.4888C20.9558 54.8853 20.1382 54.5462 19.2857 54.5462C18.4332 54.5462 17.6157 54.8853 17.0129 55.4888C16.4101 56.0924 16.0714 56.911 16.0714 57.7646C16.0714 58.6182 16.4101 59.4368 17.0129 60.0404C17.6157 60.6439 18.4332 60.983 19.2857 60.983Z" fill="white"/>
</svg>
